# xmcd
#
# Track frame offsets:
#	150
#	34993
#	58599
#	84229
#	106507
#	131791
#	159244
#	182679
#	203504
#	224859
#	249145
#	276786
#	296910
#	323374
#
# Disc length: 4608 seconds
#
# Revision: 0
# Processed by: cddbd v1.5.2PL0 Copyright (c) Steve Scherf et al.
# Submitted via: audiograbber 1.83.01
#
DISCID=c011fe0e
DTITLE=ATB The DJ4 In The Mix - The DJ 4 In The Mix CD1
DYEAR=2007
DGENRE=Trance
TTITLE0=ATB - Justify (New World Mix)
TTITLE1=Jean Michel Jarre - Vintage (ATB Remix)
TTITLE2=Josh Gallahan - 1st Strike (Original Mix)
TTITLE3=Lange - Angel Falls (Langes Firewall Remix)
TTITLE4=Mark Norman - Ventura (ATB Remix)
TTITLE5=Breakfast - The Horizon (Original Mix)
TTITLE6=Oliver Smith - Nimbus (Original Mix)
TTITLE7=Ronski Speed - Love All The Pain Away (Kyau and Albert Remix)
TTITLE8=Mandala Bros. - Sleepwalking (Duderstadt Uplifting Mix)
TTITLE9=Alexander Popov - Vapour Trails (Original Mix)
TTITLE10=Alex Bartlett feat. Anthya - Touch The Sun (Duende Vocal Remix)
TTITLE11=Super8 and Tab - Suru (Original Mix)
TTITLE12=Taylor and Gallahan - Resistance (Original Mix)
TTITLE13=ATB - Nightwatch (Original Mix)
EXTD=
EXTT0=
EXTT1=
EXTT2=
EXTT3=
EXTT4=
EXTT5=
EXTT6=
EXTT7=
EXTT8=
EXTT9=
EXTT10=
EXTT11=
EXTT12=
EXTT13=
PLAYORDER=
